<?xml version="1.0" encoding="UTF-8"?>

<svg version="1.1" xmlns="http://www.w3.org/2000/svg" xmlns:xlink="http://www.w3.org/1999/xlink" x="0px" y="0px"
	 viewBox="0 0 500 500">
<g>
	<g>
		<path d="M167.1,369.8l-1.9,2.1c-14.1-0.8-35.8-1.3-65.2-1.3c-29.3,0-50.9,0.4-65,1.3l-1.9-2.1v-14.1l2.1-2.1
			c14.3-0.8,22.6-1.5,24.7-2.1c4.1-1.1,6.5-3.7,7.2-7.8c1.8-10.1,2.7-31.9,2.7-65.4V166.7c0-33.5-0.9-55.3-2.7-65.4
			c-0.7-4.1-3.1-6.7-7.2-7.8c-2.1-0.6-10.3-1.3-24.7-2.1l-2.1-2.1V74.9l2.1-1.9c13.5,0.8,35.2,1.3,65,1.3c29.7,0,51.3-0.4,64.8-1.3
			l2.1,1.9v14.3l-2.1,2.1c-14.3,0.8-22.6,1.5-24.7,2.1c-4.1,1.1-6.5,3.7-7.2,7.8c-1.8,10.1-2.7,31.9-2.7,65.4v111.6
			c0,33.5,0.9,55.3,2.7,65.4c0.7,4.1,3.1,6.7,7.2,7.8c2.1,0.6,10.3,1.3,24.7,2.1l2.1,2.1V369.8z" fill="#191919"/>
	</g>
	<g>
		<path d="M436.9,139c0,29-9.9,51.6-29.6,67.8c-19.8,16.2-42.1,24.4-67,24.4c-8.4,0-17-1-25.5-3c-1.3-3.8-3.7-8.9-7.4-15.2l4.4-4.6
			c5.9,2,11.3,3,16.2,3c14.2,0,25.6-5,34.2-15.1c8.6-10.1,12.9-24.2,12.9-42.3c0-39.2-17.7-58.9-53-58.9c-4.2,0-12.7,0.8-25.3,2.5
			c-1.3,3.4-1.9,26.4-1.9,69v111.6c0,33.5,0.9,55.3,2.7,65.4c0.7,4.1,3.1,6.7,7.2,7.8c1.3,0.3,10.9,1,28.9,2.1l2.3,2.3v13.9
			l-2.1,2.1c-19.3-0.8-42.3-1.3-69.2-1.3c-30.2,0-51.9,0.4-65,1.3l-2.1-1.9v-14.1l2.3-2.3c14.2-0.8,22.4-1.5,24.5-2.1
			c4.1-1.1,6.5-3.7,7.2-7.8c1.8-10.1,2.7-31.9,2.7-65.4V166.7c0-33.5-0.9-55.3-2.7-65.4c-0.7-4.1-3.1-6.7-7.2-7.8
			c-2.1-0.6-10.3-1.3-24.7-2.1l-2.1-2.3V75.1L200,73c13.8,0.8,34.9,1.3,63.5,1.3c11.8,0,28.8-0.2,51.1-0.6c22.2-0.4,35-0.6,38.4-0.6
			c38.5,0,63.6,9.8,75.1,29.3C434,112.4,436.9,124.7,436.9,139z" fill="#191919"/>
	</g>
</g>
<g>
	<path d="M480.8,311.8c0,1.2,0,3-0.1,5.4l-1.2,1.5c-9.3,2.5-21.6,3.8-36.9,3.8c-2.7,0-6.9,0.1-12.4,0.2c-5.6,0.1-9.7,0.2-12.6,0.2
		c0.4,10.3,3.6,18.9,9.6,25.6c6.3,7.2,14.4,10.9,24.5,10.9c6.8,0,14.8-2.3,24.1-7l2.5,3.1l-4.6,10.4c-10.3,6.5-21.4,9.8-33.4,9.8
		c-15.8,0-28.1-4.5-36.9-13.4c-8.8-8.9-13.1-21.7-13.1-38.2c0-19.6,4.7-33.1,14-40.3c12.9-10,25.2-15,36.8-15
		c12.6,0,22.3,3.6,29.2,10.9C477.3,287.1,480.8,297.9,480.8,311.8z M453.2,309.1c0-19-5.9-28.5-17.7-28.5
		c-12.4,0-18.7,9.4-18.7,28.3v2.3c4.1,0.6,11.3,1,21.7,1c5.4,0,10.3-0.3,14.6-1C453.2,310.2,453.2,309.5,453.2,309.1z" fill="#191919"/>
</g>
</svg>
