<svg data-name="Layer 1" xmlns="http://www.w3.org/2000/svg" viewBox="0 0 1165.25 354.39">
  <path d="M224.51,465.83l-1.57,1.74q-17.38-1-53.73-1-36.17,0-53.56,1l-1.56-1.74V454.18l1.74-1.74q17.73-1,20.34-1.74a7.57,7.57,0,0,0,5.91-6.43q2.26-12.52,2.26-53.91v-92q0-41.37-2.26-53.9a7.59,7.59,0,0,0-5.91-6.44q-2.61-.69-20.34-1.74l-1.74-1.73V222.73l1.74-1.56q16.68,1,53.55,1,36.69,0,53.39-1l1.74,1.56v11.83l-1.74,1.73Q205,237.34,202.42,238a7.59,7.59,0,0,0-5.91,6.44q-2.26,12.51-2.26,53.9v92q0,41.38,2.26,53.91a7.57,7.57,0,0,0,5.91,6.43q2.61.71,20.35,1.74l1.74,1.74Z" transform="translate(-114.09 -207.43)" fill="#ffffff" />
  <path d="M439.61,365.67A110.82,110.82,0,0,1,432,406.54a77,77,0,0,1-14.61,24.17q-4,4.34-15,12.52-11.47,9.21-28.69,22.25-10.26,6.78-26.09,6.79a87.09,87.09,0,0,1-30.25-5.57v65.21q0,8,1.91,10.61c.69.92,2.26,1.68,4.69,2.26q2.79.69,22.26,2.09l1.91,1.73v10.79l-1.73,1.73q-23.48-1.38-53.39-1.39-21.91,0-43.82,1.39l-1.74-1.73V549L249.2,547q17.57-.52,20.17-2.78a6.23,6.23,0,0,0,2.09-3.31q.69-3.3,1.39-17,.52-10.42.69-26.6l.35-27v-101q0-1.74-1-25.73-.53-11.31-1.83-14.52T263.81,325q-2.08-.35-15.31-.87l-1.73-1.74v-9.74l1.73-1.91a291.51,291.51,0,0,0,67.3-14.43l3.83,2.26q0,7.47-1.57,30.08,11.65-9.74,29.39-24.17Q356,298,373.71,298q43.13,0,58.77,33Q439.61,346.19,439.61,365.67Zm-44.69,21.39q0-37.9-20-51.13A39.74,39.74,0,0,0,352.84,329q-21.39,0-35.47,17.56v86.25q15.81,16.69,34.77,16.7,28.35,0,37.91-29.39A105.12,105.12,0,0,0,394.92,387.06Z" transform="translate(-114.09 -207.43)" fill="#ffffff" />
  <path d="M621.68,369c0,2-.06,4.93-.18,8.87l-1.91,2.44q-23,6.25-60.86,6.26-6.78,0-20.52.26t-20.7.26q1.05,25.56,15.83,42.25,15.48,17.93,40.34,17.92,16.7,0,39.65-11.48l4.17,5L609.85,458a100.67,100.67,0,0,1-55.12,16.17q-39.13,0-60.78-22.09T472.3,389.15q0-48.52,23.13-66.43,32-24.69,60.69-24.69,31.13,0,48.17,17.91Q621.67,334.38,621.68,369Zm-45.39-4.52q0-46.95-29.21-46.95-30.78,0-30.78,46.61v3.82q10.08,1.56,35.82,1.57a166.24,166.24,0,0,0,24-1.57C576.23,366.31,576.29,365.15,576.29,364.45Z" transform="translate(-114.09 -207.43)" fill="#ffffff" />
  <path d="M828.43,478.53q0,38.07-28.43,60.68t-74.34,22.61q-36,0-56.95-13.48t-21-36.25q0-15.32,6.78-23.13.69-.87,18.43-11.48,8.52-5,12.52-7.13-24-4.17-24-23.12,0-10.1,7-20.52.52-.7,9.39-7,4.18-3,14.78-10.61-37.56-13.56-37.56-50.25,0-28.35,21.22-45.65t56.51-17.3q34.08,0,53.39,15.13,11,.53,14.08.35,8.52-.35,25.74-.87l2.09,1.91-1.92,17.91-1.91,1.74H798.52a64.72,64.72,0,0,1,2.26,17q0,41.39-40.16,56.52A101.09,101.09,0,0,1,725,412.45q-5.91,0-15.3-.87-11,5.91-11,15.47,0,8.88,12.69,10.09,7.3.69,24.35.69,5.38,0,18.78-.52t19.82-.52q39.3,0,48.87,17.39Q828.43,463.57,828.43,478.53Zm-39.82,19.82q0-19-13.21-23.82-5.58-2.1-22.26-2.26l-33-.35q-5.57,0-15.3.35Q681,487,681,506.17q0,17.56,14.09,27.57t37.73,10q25.4,0,40.61-12.26T788.61,498.35ZM757,357q0-43.83-29.38-43.83-28.87,0-28.87,37.91,0,44.87,30.08,44.87Q757,395.93,757,357Z" transform="translate(-114.09 -207.43)" fill="#ffffff" />
  <path d="M940.77,466,939,467.74q-16.53-1.22-47.65-1.21t-47.47,1.21L842.17,466V455.4l1.74-1.74q16.7-.53,20.69-2.61,3.48-1.56,3.83-8.35,1.22-22.59,1.22-79.12V305.33q0-36.52-1.22-59.12-.36-6.44-3.83-8.44t-20.17-2.52l-1.74-1.91v-9.57l1.74-1.91a342,342,0,0,0,67.3-14.43l3.65,2.09q0,4.69-.52,17.21-1.74,41.57-1.74,92v44.86q0,56.52,1.22,79.12.35,6.8,3.82,8.35,4,2.08,20.69,2.61l1.92,1.74Z" transform="translate(-114.09 -207.43)" fill="#ffffff" />
  <path d="M1059.36,466l-1.74,1.73q-16.51-1.22-47.64-1.21t-47.48,1.21L960.76,466V455.4l1.74-1.74q16.69-.53,20.7-2.61,3.46-1.56,3.82-8.35,1.22-22.59,1.22-48.51V369.32q0-33.74-2.61-40-1.39-3.48-7.48-4.35-2.08-.35-15.12-.87l-1.74-1.74v-9.74l1.74-1.91a289.13,289.13,0,0,0,67.29-14.43l3.65,2.26q-2.27,31.65-2.26,53.38V407.4q0,12.71,1.22,35.3.35,6.8,3.82,8.35,4,2.08,20.7,2.61l1.91,1.74Zm-24-226.93a26.09,26.09,0,0,1-7.82,19,26.46,26.46,0,0,1-37.74,0,27,27,0,0,1,19-46.17,25.7,25.7,0,0,1,18.69,7.82A26.08,26.08,0,0,1,1035.36,239.08Z" transform="translate(-114.09 -207.43)" fill="#ffffff" />
  <path d="M1279.33,465.83l-1.73,1.91q-19.14-1.22-32.35-1.21-12.16,0-35.47,1.21L1208,466q3.14-38.77,3.13-59.82V372.1q0-42.42-30.61-42.43-16,0-25,11-7.65,9.22-7.65,18.61v32.51q0,45,2.26,55.3,1.39,6.09,20.17,6.44l1.74,1.73v10.61l-1.74,1.74q-14.77-1-44.16-1-31.14,0-47.48,1.21l-1.74-1.73V455.4l1.74-1.74q16.69-.53,20.7-2.61,3.47-1.56,3.82-8.35,1.21-22.59,1.22-48.51V369.32q0-34.77-2.61-40-1.74-3.48-7.48-4.35-2.08-.35-15.12-.87l-1.74-1.74v-9.74l1.74-1.91q31.29-3,65.9-14.43l3.83,2.26-.35,29.21,29.91-25a65.94,65.94,0,0,1,25.21-4.69q27.64,0,41.39,16.69,11.13,13.56,11.13,39.82,0,3-.7,24.17t-.69,30.26q0,26.26.87,33.47c.57,4.81,1.91,7.86,4,9.13s8.12,2,18.09,2.26l1.56,1.74Z" transform="translate(-114.09 -207.43)" fill="#ffffff" />
</svg>